# xmcd
#
# Track frame offsets: 
#        150
#        19333
#        30289
#        49311
#        61414
#        73872
#        91885
#        107816
#        121608
#        137562
#        153941
#        168162
#        183506
#        197616
#        210820
#        224764
#
# Disc length: 3205 seconds
#
# Revision: 0
# Processed by: cddbd v1.5.2PL0 Copyright (c) Steve Scherf et al.
# Submitted via: ExactAudioCopy v0.99pb3
#
DISCID=d90c8310
DTITLE=Jack Jersey - Greatest Hits
DYEAR=1900
DGENRE=Oldies
TTITLE0=Sri Lanka - My Shangrila
TTITLE1=In The Still Of The Night
TTITLE2=Silvery Moon
TTITLE3=She was Dynamite
TTITLE4=I Wonder
TTITLE5=Let's come together
TTITLE6=Blue Brown Eyed Girl
TTITLE7=Gone Girl
TTITLE8=I'm Calling
TTITLE9=I Can Stand Tomorrow
TTITLE10=Ole sio
TTITLE11=Pappa was a Poor Man
TTITLE12=Woman
TTITLE13=Don't break this heart
TTITLE14=Blame it on the Summer Sun
TTITLE15=Dark Moon
EXTD=
EXTT0=
EXTT1=
EXTT2=
EXTT3=
EXTT4=
EXTT5=
EXTT6=
EXTT7=
EXTT8=
EXTT9=
EXTT10=
EXTT11=
EXTT12=
EXTT13=
EXTT14=
EXTT15=
PLAYORDER=
